<svg id="Слой_1" data-name="Слой 1" xmlns="http://www.w3.org/2000/svg" viewBox="0 0 334.86 314.1"><defs><style>.cls-1{fill:none;stroke:#324c5e;stroke-linecap:round;stroke-linejoin:round;stroke-width:8px;}</style></defs><title>crown</title><path class="cls-1" d="M272.57,310.1l31.09-192.21c-27.19,20.19-52.07,39.45-70,67.31a11.68,11.68,0,0,1-9.8,5.44c-6.51,0-10.64-5.58-11.79-12.23-3.79-21.89-32.22-76.94-44.6-95.9-12.37,19-40.83,74-44.6,95.9-1.15,6.64-5.28,12.23-11.79,12.23a11.72,11.72,0,0,1-10.17-6c-13.76-24.29-46-47.89-69.67-64.94L62.1,310.1Z"/><path class="cls-1" d="M308.72,42a22.13,22.13,0,1,0,22.13,22.13A22.13,22.13,0,0,0,308.72,42Z"/><path class="cls-1" d="M26.13,39.31A22.13,22.13,0,1,0,48.27,61.43,22.13,22.13,0,0,0,26.13,39.31Z"/><path class="cls-1" d="M167.43,4a22.13,22.13,0,1,0,22.13,22.13A22.13,22.13,0,0,0,167.43,4Z"/></svg>