<svg id="Слой_1" data-name="Слой 1" xmlns="http://www.w3.org/2000/svg" viewBox="0 0 310.33 314.25"><defs><style>.cls-1{fill:none;stroke:#334d5e;stroke-linecap:round;stroke-linejoin:round;stroke-width:8px;}</style></defs><title>leaf</title><path class="cls-1" d="M44.54,60.83c14,83.63,32.91,99.48,56.28,144.1a112.4,112.4,0,0,1,6.93,21.25,145.86,145.86,0,0,1,25.07-19.28c8.9-5.37,18.29-8,27.7-10.3,32.17-7.87,64.5-1.77,90.23,3"/><path class="cls-1" d="M162.85,181.65c12.71-22,40.57-34.61,81.38-13.63,14.86,7.64,31.27,25.63,62.1,36.62C265,221.26,249.83,255.82,219.69,261c-41.17,7.08-61.77-16.92-64.39-43.6-24.41,10.06-38.63,26.24-51.54,44.77-12,17.26-14.55,27.73-19.91,48.08L62,296.4a200.74,200.74,0,0,1,23-43.58c4.85-16.92,6-32.93-1.87-44.51C53.35,217,17.17,200,5.49,141.23-2.85,99.29,26.64,65.39,25.22,4c25.72,36.37,52.18,50.85,67,67.44,46.56,52,39.27,99.19,14.65,122.92"/></svg>