<svg xmlns="http://www.w3.org/2000/svg" viewBox="0 0 345.14 347.69"><defs><style>.cls-1{fill:none;stroke:#000;stroke-linecap:round;stroke-linejoin:round;stroke-width:9px;}</style></defs><title>recipe</title><g id="Слой_2" data-name="Слой 2"><g id="Слой_1-2" data-name="Слой 1"><path class="cls-1" d="M253.8,136.87V40.29a12.24,12.24,0,0,0-12-12H187.88"/><path class="cls-1" d="M71.4,28.25H16.54a12.19,12.19,0,0,0-12,12V331.14a12.16,12.16,0,0,0,12,12H241.76a12.2,12.2,0,0,0,12-12V199.52"/><path class="cls-1" d="M310.24,81.62l30.4,30.4L182.87,269.79c-31.45,31.45-61.86,1.05-30.4-30.4L310.24,81.62Z"/><polyline class="cls-1" points="276.64 215.58 335.68 156.76 285.2 106.28"/><line class="cls-1" x1="126.59" y1="294.65" x2="143.58" y2="277.65"/><path class="cls-1" d="M48.61,96.26l14.16,18.48L79,93.53m-30.39,50L62.78,162,79,140.79m-30.39,50,14.16,18.48L79,188"/><path class="cls-1" d="M105.19,103h92.9m-92.9,47.25h92.9"/><line class="cls-1" x1="105.19" y1="197.5" x2="150.83" y2="197.5"/><polygon class="cls-1" points="74.3 48.36 184 48.36 184 4.5 74.3 4.5 74.3 48.36 74.3 48.36"/></g></g></svg>