<svg id="Слой_1" data-name="Слой 1" xmlns="http://www.w3.org/2000/svg" viewBox="0 0 352.5 315.85"><defs><style>.cls-1,.cls-2{fill:none;stroke-linecap:round;stroke-linejoin:round;stroke-width:8px;}.cls-1{stroke:#ca3c3f;}.cls-2{stroke:#282f40;}</style></defs><title>cards</title><path class="cls-1" d="M38.36,274.5H93m37.62,0h34.23m31.87-152.42L35.33,79M45.52,41l296.81,79.32m-10.19,38-14.93-4m-280,92.29h232M116.57,206.53h-64a6.27,6.27,0,0,1-6.24-6.24v-36a6.26,6.26,0,0,1,6.24-6.24h66.81a6.27,6.27,0,0,1,6.24,6.24v36a6.28,6.28,0,0,1-6.24,6.24Z"/><path class="cls-2" d="M277.89,311.85H28.34A24.46,24.46,0,0,1,4,287.51V147.09a24.41,24.41,0,0,1,24.34-24.35H289a24.46,24.46,0,0,1,24.35,24.35V287.51A24.5,24.5,0,0,1,289,311.85ZM21.65,123.66,48.88,22A24.41,24.41,0,0,1,78.7,4.83L330.45,72.29a24.44,24.44,0,0,1,17.22,29.82L313.33,230.26"/></svg>