<svg id="Слой_1" data-name="Слой 1" xmlns="http://www.w3.org/2000/svg" viewBox="0 0 344.85 343.28"><defs><style>.cls-1,.cls-2,.cls-3{fill:none;stroke-width:8px;}.cls-1{stroke:#ca3c3f;}.cls-1,.cls-3{stroke-linecap:round;stroke-linejoin:round;}.cls-2,.cls-3{stroke:#000;}.cls-2{stroke-miterlimit:22.93;}</style></defs><title>cart</title><line class="cls-1" x1="205.32" y1="5.18" x2="259.59" y2="119.59"/><line class="cls-1" x1="138.33" y1="5.18" x2="86.92" y2="119.59"/><line class="cls-1" x1="261.22" y1="303.85" x2="270.28" y2="204.84"/><path class="cls-1" d="M217.24,303.84q2.26-49.51,4.53-99"/><path class="cls-1" d="M173.26,303.84q0-49.51,0-99"/><path class="cls-1" d="M129.28,303.84q-2.26-49.51-4.53-99"/><line class="cls-1" x1="85.29" y1="303.85" x2="76.23" y2="204.84"/><path class="cls-2" d="M317,170.84l-8.92,136.22c-1.17,17.94-14.74,32.72-32.73,32.72H71.17c-18,0-31.55-14.76-32.73-32.72L29.52,170.84"/><path class="cls-3" d="M17.17,119.59H329.34a12,12,0,0,1,12,12v27.24a12,12,0,0,1-12,12H17.17a12,12,0,0,1-12-12V131.59a12,12,0,0,1,12-12Z"/></svg>