<svg xmlns="http://www.w3.org/2000/svg" viewBox="0 0 274.65 356.09"><defs><style>.cls-1{fill:none;stroke:#000;stroke-linecap:round;stroke-linejoin:round;stroke-width:9px;}</style></defs><title>employee</title><g id="Слой_2" data-name="Слой 2"><g id="Слой_1-2" data-name="Слой 1"><path class="cls-1" d="M112.28,190.22c.75,8.75-1.19,20.34-9.46,29.71a29.14,29.14,0,0,1-2.85,2.8l37.77,87.1,40.77-86.07a30.08,30.08,0,0,1-4.24-3.84c-7.27-8.07-8.8-20.73-8.12-29.81m99.39,161.49c14.29-74.93-1.8-105-87-127.84m-78.53-1L66.67,235c-60,22.44-72.14,46.24-55.12,116.6m213.69-25.13H179.69M117.59,72.71c15.34,0,52-2.68,62.41-18.17,11.62,12,20.87,48.45,20.87,67.56,0,36.3-25.72,75.1-58.13,75.1s-58.68-29.43-58.68-65.73,1.12-58.77,33.53-58.77Zm119.87,169c20.54-23.91,5.87-49.38,5.87-87.44C243.33,82,241.47-.17,140.6,4.71S36.89,63.31,36.89,135.59c0,45.41.78,80,15.56,99.36"/></g></g></svg>