<svg id="Слой_1" data-name="Слой 1" xmlns="http://www.w3.org/2000/svg" viewBox="0 0 252.08 251.54"><defs><style>.cls-1{fill:none;stroke:#282f40;stroke-linecap:round;stroke-linejoin:round;stroke-width:6px;}</style></defs><title>fish</title><path class="cls-1" d="M129.17,180.93a50.43,50.43,0,1,0-50.43,50.43,50.43,50.43,0,0,0,50.43-50.43Zm-13.39,0a37,37,0,1,0-37,37,37,37,0,0,0,37-37Zm-74.07,0h74.06M60.23,213l37-64.14m0,64.14-37-64.14"/><path class="cls-1" d="M5.95,67.94C20.12,84,51.16,94.18,82.51,65.2M76.14,29.13a9.14,9.14,0,1,0-2,12.78,9.14,9.14,0,0,0,2-12.78Zm106.92,86.23,17-3.72L178.74,92l17.76-8.32-30-19.52,16-10-32.32-9.53,16-12-49.77-9.4M44.65,137.57C21.67,115.48,7,88.67,4.09,60.07,2.54,45.08,1.93,37,7.26,21.45c7,11.91,30.36,15.77,31.55,15.29C39.29,35.56,14,10.14,14.6,9,66.86-8.93,118.36,14.72,153,61.87a210.27,210.27,0,0,1,21.12,35.45c22.64,40.26,17.36,77.69,32.76,90.46,16.12,13.37,44,.91,41,8.6,2.46,1.36,1.13,2.93-3,8.51-5.56,7.44-22.18,10.29-28.67,10.69-.4,6.49-3.27,23.11-10.7,28.68-5.58,4.17-7.15,5.51-8.51,3-7.6,2.95,2.16-28-8.61-41-9.14-11-30.9-11.45-57.28-19.09"/></svg>