<svg id="Слой_1" data-name="Слой 1" xmlns="http://www.w3.org/2000/svg" viewBox="0 0 343.44 347.93"><defs><style>.cls-1,.cls-2{fill:none;stroke-linecap:round;stroke-linejoin:round;stroke-width:8px;}.cls-1{stroke:#ca3c3f;}.cls-2{stroke:#282f40;}</style></defs><title>food_box</title><path class="cls-1" d="M173.95,124.42,232.92,4l23.91,11.72-57.41,108.7m14-1.24,105.41-111,19.47,19.15-94.09,93.07"/><path class="cls-2" d="M302.16,129.3l37.28,82.39M48.82,124.42H292.36c4.14,0,8.33,4,7.53,8.6l-35.15,202.3c-.79,4.56-3.46,8.6-7.53,8.6H84c-4.07,0-6.73-4-7.53-8.6L41.28,133c-.8-4.63,3.39-8.6,7.53-8.6Zm-7.53,4.88L4,211.7m288.24-87.27c4.14,0,8.41,1.6,7.53,3.42l-37.66,77.56c-.87,1.8-3.47,6.29-7.53,6.29H86.36c-4.06,0-6.64-4.45-7.53-6.29L41.17,127.85c-.89-1.83,3.39-3.42,7.53-3.42"/></svg>