<svg xmlns="http://www.w3.org/2000/svg" viewBox="0 0 331.19 276.32"><defs><style>.cls-1{fill:none;stroke:#000;stroke-linecap:round;stroke-linejoin:round;stroke-width:8px;}</style></defs><title>Ресурс 1</title><g id="Слой_2" data-name="Слой 2"><g id="Слой_1-2" data-name="Слой 1"><path class="cls-1" d="M208.31,84.79,261,84.07c8-.11,21.76,8.07,26.38,14.48l27,37.5a69.57,69.57,0,0,1,12.81,39.71V218a14.62,14.62,0,0,1-14.48,14.48H281.43"/><line class="cls-1" x1="216.71" y1="232.52" x2="112.42" y2="232.52"/><path class="cls-1" d="M39.91,232.52H18.48A14.62,14.62,0,0,1,4,218V137.45"/><path class="cls-1" d="M249.05,207.51a32.4,32.4,0,1,1-32.4,32.4,32.4,32.4,0,0,1,32.4-32.4Z"/><path class="cls-1" d="M73.81,207.51a32.4,32.4,0,1,1-32.4,32.4,32.4,32.4,0,0,1,32.4-32.4Z"/><path class="cls-1" d="M326.42,165.05h-66.7a14.58,14.58,0,0,1-14.48-14.48V85.49"/><path class="cls-1" d="M73.82,233.11a6.8,6.8,0,1,1-6.8,6.79,6.79,6.79,0,0,1,6.8-6.79Zm175.24,0a6.8,6.8,0,1,1-6.8,6.79,6.79,6.79,0,0,1,6.8-6.79Z"/><path class="cls-1" d="M30.19,4H184.35a21,21,0,0,1,21.19,21.19V143.72c0,11.71-6.91,21.19-21.19,21.19H10.19A6.21,6.21,0,0,1,4,158.72V25.19C4,12.74,12.12,4,25.19,4Z"/></g></g></svg>