<svg xmlns="http://www.w3.org/2000/svg" viewBox="0 0 342.33 348.52"><defs><style>.cls-1{fill:none;stroke:#000;stroke-linecap:round;stroke-linejoin:round;stroke-width:7px;}</style></defs><title>special_events</title><g id="Слой_2" data-name="Слой 2"><g id="Слой_1-2" data-name="Слой 1"><path class="cls-1" d="M50.51,147.26c-12.76,4.16-10.05,22.13-17.89,27.89S9.82,171.6,3.5,181.79c-.22,14.09,16.82,16.89,19.56,26.52S12.78,230.11,20,239.57c12.63,4.54,20.45-11.7,30-11.5s16.44,17,27.22,12.68c8-11.28-4.18-24.11-1-33.62s20.45-11.28,19.9-23.42c-7.67-11.52-23-3.22-30.62-9.29s-3.8-24-14.93-27.16Z"/><path class="cls-1" d="M144,259.88c-11.6,2.84-10,16.76-17.28,21.34s-20.43-2.48-26.71,6.14c-1.14,12.48,11.94,15,13.73,23.71s-8.74,19.75-3,28.63c10.9,4.87,17.33-7.49,25.78-6.68s15,14.68,24.87,11.55c7.86-9.47-1.23-19.62,2.19-27.84s18-10.68,18.35-21.49c-6-10.72-18.1-4.63-24.42-10.52s-3.88-21.28-13.53-24.83Z"/><line class="cls-1" x1="256.26" y1="136.43" x2="179.38" y2="170.96"/><line class="cls-1" x1="85.4" y1="206" x2="150.32" y2="199.71"/><line class="cls-1" x1="185.2" y1="192.43" x2="256.92" y2="292.97"/><line class="cls-1" x1="169.9" y1="215.2" x2="157.53" y2="284.71"/><line class="cls-1" x1="147.52" y1="84.31" x2="153.96" y2="175.45"/><line class="cls-1" x1="207.65" y1="105.64" x2="179.38" y2="170.96"/><line class="cls-1" x1="169.9" y1="215.2" x2="234.68" y2="337.67"/><line class="cls-1" x1="263.78" y1="217.38" x2="185.2" y2="192.43"/><line class="cls-1" x1="150.32" y1="199.71" x2="56.2" y2="292.39"/><line class="cls-1" x1="51.3" y1="97.2" x2="153.96" y2="175.46"/><path class="cls-1" d="M306.82,169.81c-13.16.18-14.32,17.66-23.32,20.76s-21.84-9.84-30.72-2.14c-4.3,13.12,11.23,19.14,11,28.95s-16.39,19-12.39,29.92c10.5,7.92,21.26-5.84,30.12-2.88S293.23,266,304.57,265c10.79-8.22,1.9-22.74,7.61-30.72s23.62-5.64,26.64-17.17c-3.83-13-20.08-8.22-25.42-16.11s2.89-25-6.59-31.24Z"/><path class="cls-1" d="M276.26,36.1c-11.6,2.84-10,16.76-17.28,21.34S238.55,55,232.27,63.57C231.13,76,244.21,78.56,246,87.28s-8.74,19.75-3,28.63c10.9,4.87,17.33-7.49,25.78-6.68s15,14.68,24.87,11.55c7.86-9.47-1.23-19.62,2.19-27.84s18-10.68,18.35-21.49c-6-10.72-18.1-4.63-24.42-10.52s-3.88-21.28-13.53-24.83Z"/><path class="cls-1" d="M148.05,3.5C135.29,7.67,138,25.63,130.16,31.39S107.36,27.84,101,38c-.22,14.09,16.82,16.89,19.56,26.52s-10.29,21.8-3.07,31.26c12.63,4.54,20.45-11.7,30-11.5S164,101.33,174.74,97c8-11.28-4.18-24.11-1-33.62s20.45-11.28,19.9-23.42c-7.67-11.52-23-3.21-30.62-9.29s-3.8-24-14.93-27.16Z"/></g></g></svg>