<svg id="Слой_1" data-name="Слой 1" xmlns="http://www.w3.org/2000/svg" viewBox="0 0 353.62 327.5"><defs><style>.cls-1,.cls-2{fill:none;stroke-linecap:round;stroke-linejoin:round;stroke-width:8px;}.cls-1{stroke:#282f40;}.cls-2{stroke:#ca3c3f;}</style></defs><title>truck</title><path class="cls-1" d="M227.34,121.71l54.19-.75c8.19-.11,22.38,8.3,27.13,14.89l27.78,38.57a71.56,71.56,0,0,1,13.17,40.85v43.49a15,15,0,0,1-14.89,14.89h-8.47a59.27,59.27,0,0,0-114,0H141.38a59.27,59.27,0,0,0-114,0H18.89A15,15,0,0,1,4,258.77V173.64a15,15,0,0,0,14.89,14.89H212.45a15,15,0,0,0,14.89-14.89V121.71Zm41.91,140.62a30.59,30.59,0,1,1-30.59,30.59,30.58,30.58,0,0,1,30.59-30.59Zm-184.88,0a30.59,30.59,0,1,1-30.59,30.59,30.59,30.59,0,0,1,30.59-30.59Z"/><path class="cls-2" d="M18.89,4H212.45a15,15,0,0,1,14.89,15V173.5a15,15,0,0,1-14.89,15H18.89A15,15,0,0,1,4,173.5V19A15,15,0,0,1,18.89,4Z"/></svg>