<svg xmlns="http://www.w3.org/2000/svg" viewBox="0 0 339.69 343.25"><defs><style>.cls-1{fill:none;stroke:#000;stroke-linecap:round;stroke-linejoin:round;stroke-width:7px;}</style></defs><title>wedding</title><g id="Слой_2" data-name="Слой 2"><g id="Слой_1-2" data-name="Слой 1"><line class="cls-1" x1="152.56" y1="123.84" x2="54.16" y2="123.77"/><line class="cls-1" x1="286.76" y1="123.94" x2="187.52" y2="123.87"/><path class="cls-1" d="M68,72.73,160.39,97.5,132.57,217.27C125.89,246,96,263.14,68.46,255.74h0c-27.59-7.39-44.89-37.09-36.29-65.38L68,72.73Z"/><path class="cls-1" d="M122.71,158.67l-10.7,49c-2.14,9.82-8.8,17.5-16.7,22.24a34.64,34.64,0,0,1-26.87,3.91h0"/><line class="cls-1" x1="94.94" y1="339.75" x2="3.5" y2="315.25"/><line class="cls-1" x1="68.46" y1="255.74" x2="50.13" y2="324.16"/><path class="cls-1" d="M179.32,97.5l92.43-24.77,35.79,117.64c8.6,28.26-8.7,58-36.29,65.38h0c-27.59,7.39-57.42-9.67-64.11-38.47L179.32,97.5Z"/><path class="cls-1" d="M270.7,142.81l15.22,47.76c3.05,9.57,1.13,19.56-3.34,27.61A34.64,34.64,0,0,1,261.26,235h0"/><line class="cls-1" x1="336.19" y1="315.25" x2="244.75" y2="339.75"/><line class="cls-1" x1="271.25" y1="255.75" x2="289.59" y2="324.16"/><line class="cls-1" x1="116.83" y1="23.68" x2="140.17" y2="62.08"/><line class="cls-1" x1="170.27" y1="58.74" x2="170.87" y2="3.5"/><line class="cls-1" x1="197.47" y1="63.05" x2="222.48" y2="25.72"/></g></g></svg>